ply
format ascii 1.0
element vertex 1000
property float x
property float y
property float z
property int label
end_header
6.448748 4.725439 8.054771 2
7.928570 8.938380 6.881680 2
4.872053 2.295376 8.225453 2
4.511729 2.691492 4.844314 1
0.844954 7.714904 8.656035 2
0.714894 7.054036 0.071386 0
3.239974 9.597621 1.251651 0
1.911933 3.384401 5.963233 1
2.874762 9.740425 0.989331 0
0.715433 3.701455 1.140134 0
1.038615 6.986762 5.541534 1
7.915534 2.574643 5.404029 1
6.418926 0.638256 2.556612 0
6.418771 3.544403 0.665063 0
8.970641 2.621413 6.369131 1
9.715302 1.710057 5.578215 1
4.618177 7.754904 4.703971 1
3.396345 7.479799 2.257253 0
1.339729 6.099199 3.270264 0
8.721298 1.986985 3.610856 1
4.050325 6.647090 3.715973 1
0.644459 9.630959 6.542374 1
4.410857 8.195911 6.861182 2
4.286896 1.913224 5.322992 1
6.896287 3.002362 4.427680 1
6.209456 2.668441 9.803384 2
4.908681 5.151846 5.241798 1
1.293528 8.138423 7.599939 2
0.121336 7.673236 7.120447 2
7.676552 1.467393 3.085377 0
2.699381 3.912599 0.690248 0
1.302303 5.196168 9.118799 2
0.331133 0.190660 0.943673 0
5.521984 1.380130 7.709244 2
6.934334 8.292659 6.384861 1
4.951586 8.561784 3.120423 0
4.015884 2.054483 5.637448 1
2.235960 8.629323 2.635274 0
5.857481 1.432598 1.143824 0
7.069298 7.072222 1.730440 0
5.928250 8.377956 2.775814 0
7.163322 0.116892 6.779938 2
5.107541 9.708194 8.263408 2
6.657498 6.698576 8.250750 2
5.351289 0.955721 9.746181 2
8.215574 5.679714 5.647056 1
1.539760 7.601158 6.471820 1
9.710011 9.240981 6.182176 1
8.398989 2.508703 6.479001 1
6.003333 8.901936 5.197016 1
0.478973 8.023496 2.105904 0
7.099024 5.362242 6.350773 1
3.049720 1.716995 7.676809 2
4.173604 5.694483 9.311449 2
4.493798 3.729656 0.354516 0
1.764806 9.118143 8.737556 2
5.498035 5.196989 5.454395 1
5.404460 5.185638 3.550622 1
3.259517 9.123757 7.563036 2
7.711425 2.114579 0.449889 0
0.124212 8.564174 5.084116 1
5.441002 6.256506 2.664928 0
5.540856 0.974032 8.593338 2
4.035513 2.228133 7.098734 2
9.739719 3.323585 1.300252 0
5.186162 6.271914 9.601314 2
8.076521 9.777852 9.219730 2
2.755147 6.430735 4.063113 1
4.232209 6.183143 9.134408 2
4.400271 9.314178 4.219773 1
9.272876 9.869586 2.112551 0
4.768219 9.476113 5.185002 1
0.249699 9.495262 0.446897 0
0.593070 9.650185 3.483079 1
3.685405 6.793716 5.632836 1
3.941228 2.429804 1.881440 0
9.836372 2.705574 4.068029 1
6.371904 0.236761 1.857563 0
2.728591 7.795129 1.769367 0
0.121043 7.118429 3.396355 1
3.152063 7.471971 0.419337 0
4.087160 9.801248 7.076315 2
2.821692 0.775744 2.276395 0
2.291487 4.730422 6.375407 1
3.135823 4.638626 8.168532 2
6.594024 2.190681 0.182023 0
0.029462 5.073068 6.151280 1
8.360403 8.589227 0.619926 0
0.941830 1.651960 1.618287 0
5.900880 5.181656 8.038066 2
5.323003 0.759760 4.892313 1
5.116572 9.020505 8.210799 2
3.402555 5.188941 7.933316 2
5.111713 5.303901 9.714039 2
8.719227 9.006266 6.291843 1
7.726966 0.451844 9.330063 2
0.107159 8.383812 0.939594 0
8.740368 0.142885 8.981007 2
1.374967 6.635881 7.351039 2
5.817409 5.810335 1.702463 0
4.439960 7.893845 9.221481 2
0.138370 9.798298 3.723431 1
9.153289 0.130683 4.155658 1
9.436601 2.008085 9.546872 2
9.016182 4.216514 6.543704 1
1.244733 0.120015 1.393815 0
5.078619 7.906314 2.584645 0
1.439911 6.390081 8.323295 2
0.621757 1.795306 1.135927 0
0.160958 5.188436 7.645562 2
1.937819 1.649390 1.135357 0
7.292158 4.553408 1.556551 0
2.151322 2.141051 7.248054 2
0.903331 7.276734 5.739950 1
4.089761 0.949729 9.221904 2
6.244928 7.373440 3.625787 1
0.875552 0.979012 3.876441 1
0.607754 5.156495 5.887146 1
3.686087 8.196329 8.960442 2
7.463988 7.745944 7.142092 2
3.250423 8.326043 6.472053 1
0.121227 6.475387 9.683607 2
1.086964 4.134996 7.668434 2
7.003305 9.440294 7.654615 2
2.017857 4.760616 2.321269 0
5.983595 1.366397 1.053119 0
3.854599 0.593235 8.002723 2
8.838193 4.092490 7.570914 2
8.669744 0.030110 2.643312 0
5.261791 9.348743 8.751115 2
2.458408 9.139792 1.094748 0
0.150876 4.908915 4.649682 1
0.508307 7.176430 9.052521 2
1.794098 5.633199 2.621882 0
2.362470 1.561730 5.243144 1
4.600507 7.853571 7.359901 2
6.057938 6.260113 9.450626 2
2.927961 7.205026 0.109721 0
4.191791 7.100507 9.092664 2
5.012588 8.059850 8.681829 2
0.513359 1.143631 6.532602 1
9.911538 0.428489 1.939640 0
6.933524 9.547336 0.388886 0
6.726226 2.455618 7.717854 2
3.052489 0.642614 6.461466 1
2.613515 1.906301 3.868376 1
8.218804 8.102204 6.825530 2
7.140218 4.020379 6.147470 1
1.241434 7.391577 9.988642 2
3.027386 9.014744 2.479006 0
7.858423 1.813258 7.567954 2
5.090180 5.229334 1.705111 0
0.308660 3.043205 7.115203 2
7.291667 4.399366 9.060857 2
1.412670 8.703662 2.486547 0
6.458731 1.182492 3.891208 1
2.889207 4.875861 2.891837 0
0.968276 6.766793 6.517361 1
8.024158 8.210826 6.304266 1
9.867727 7.153338 6.986053 2
1.206463 5.922555 2.723504 0
8.448291 0.591545 0.509406 0
7.437936 4.534889 2.511865 0
1.155536 1.648178 3.164131 0
8.814443 0.858480 4.044731 1
3.752673 1.955101 2.191243 0
8.654801 7.037777 0.709651 0
1.714558 2.950402 4.771712 1
1.486402 2.203899 3.810893 1
2.750778 9.292514 0.799492 0
2.653484 5.243067 1.942871 0
4.590174 0.607400 6.138981 1
8.102527 7.652287 9.422665 2
8.183349 9.985412 0.347147 0
7.422381 7.561662 0.158838 0
9.481289 0.873652 2.022114 0
4.547719 3.189100 5.090443 1
9.103347 1.172781 6.242702 1
4.465506 7.983850 4.616274 1
6.747111 2.960319 1.694894 0
1.561528 7.810452 6.673292 2
9.208476 0.524792 6.163305 1
2.777720 6.478721 6.157717 1
1.499343 5.621817 1.092699 0
8.568183 3.999080 6.556473 1
8.142351 6.433572 7.579740 2
1.930010 0.779671 8.403140 2
2.132533 1.454533 8.389293 2
7.568994 2.085400 5.103385 1
1.471312 9.040587 8.685685 2
1.309337 3.695923 8.932908 2
0.229244 2.928619 8.800658 2
6.089833 6.742811 9.977756 2
2.915387 8.774863 0.417380 0
5.462494 5.688213 1.651708 0
3.839478 2.350762 5.533486 1
5.373105 4.369117 1.005195 0
0.552757 4.645889 9.944140 2
8.794140 6.971921 6.544401 1
3.258185 4.381917 7.518177 2
6.663490 5.936678 4.912389 1
6.235757 7.731511 3.731239 1
0.837757 8.545363 6.207912 1
2.243629 7.767749 7.294799 2
9.189595 9.264412 9.266870 2
0.982599 2.655123 3.114829 0
1.472908 8.143947 9.226822 2
1.917978 3.943251 6.067382 1
5.609487 7.866462 5.333725 1
5.884983 6.891753 6.813701 2
0.856592 8.115418 4.461736 1
3.860353 3.156017 0.048977 0
8.399469 5.340233 5.895206 1
5.382592 7.250873 7.267976 2
3.505959 3.733327 1.648072 0
0.335449 5.173504 5.029129 1
2.856226 2.514623 5.934892 1
3.864228 3.150298 2.787176 0
6.768935 8.733872 8.165653 2
0.849634 6.671535 1.103145 0
7.557356 3.524473 4.123109 1
4.674685 2.173827 8.644713 2
1.508181 2.476926 7.388791 2
1.439537 0.833885 4.653455 1
8.094876 8.866117 4.166275 1
2.757913 2.097814 4.130533 1
4.142035 3.920892 8.224171 2
8.470925 8.459086 0.668908 0
2.734560 9.043475 4.367629 1
5.226188 4.270101 8.662390 2
4.208956 0.941054 9.639216 2
3.538506 2.456373 8.071585 2
6.446505 8.636975 5.867900 1
0.137674 0.920072 9.914876 2
6.883427 8.045854 5.296925 1
6.250183 5.804095 9.782684 2
4.554388 5.526623 5.974082 1
2.599898 5.115861 5.578221 1
3.474760 0.981281 5.712505 1
0.040236 1.188624 8.315700 2
8.402885 3.911521 2.704505 0
8.609008 3.194894 6.217419 1
4.828394 3.468620 1.693608 0
4.219727 2.492598 2.655721 0
4.411005 2.580292 9.292070 2
4.616786 8.083196 0.369627 0
5.599535 0.295568 5.648286 1
7.736382 1.029039 4.646649 1
5.689991 9.737549 6.034099 1
3.762782 1.407024 0.193224 0
8.446142 3.841158 4.926465 1
9.822126 5.060429 6.300790 1
1.357730 6.809667 7.176451 2
9.098085 7.455081 4.049420 1
4.021597 7.137282 1.720858 0
3.799477 8.924667 8.894940 2
8.127759 4.766210 6.864926 2
5.462539 1.966502 8.793810 2
1.040783 0.821460 4.677520 1
7.582827 8.515651 4.335396 1
7.151559 1.502931 7.560181 2
4.150800 6.773060 8.561908 2
3.973544 8.560643 9.299747 2
2.101823 9.066667 7.255024 2
7.245665 6.486037 6.964906 2
2.702859 0.959799 5.045907 1
4.766123 5.933033 7.551862 2
8.152802 2.536407 2.166592 0
8.224293 1.918659 9.116542 2
5.072179 9.176381 6.673733 2
9.243293 0.144185 7.518782 2
3.169852 7.274903 4.798677 1
4.464337 1.798997 5.029058 1
0.520010 0.616691 2.275304 0
5.060188 9.441905 3.630379 1
2.892839 0.117466 1.744460 0
0.981638 0.492218 3.233829 0
0.533084 7.323004 3.752385 1
7.736650 4.231641 9.773959 2
3.095079 6.248382 2.601032 0
2.657488 6.430760 5.003788 1
1.004686 4.401229 5.282184 1
6.900327 5.190538 0.365327 0
9.624588 2.315726 7.857801 2
5.017606 7.367946 2.433475 0
0.439392 7.700875 5.274963 1
5.858645 8.164207 8.457381 2
1.258594 2.516244 0.924104 0
9.180809 6.530502 0.757144 0
8.605054 0.641110 6.450054 1
5.132367 4.667007 3.842617 1
2.289871 7.677135 6.343805 1
9.192321 0.588893 5.347570 1
6.852998 5.857784 6.957537 2
6.369190 6.733012 3.790100 1
8.991902 1.864584 2.680512 0
1.340446 5.690634 0.754167 0
2.396889 9.685236 4.117838 1
0.973979 1.549388 3.176666 0
0.807089 6.436970 3.813671 1
3.947946 8.688513 9.451704 2
6.808730 2.650472 5.937196 1
8.981608 4.150744 5.408521 1
6.153670 3.297615 7.474221 2
6.299602 3.212719 2.740215 0
1.086976 6.938740 7.005471 2
4.289041 7.790897 8.252028 2
5.175375 9.954370 7.311045 2
4.516899 6.451784 7.578562 2
3.547100 9.348922 8.054581 2
8.814214 7.090396 0.771431 0
4.705633 0.879577 0.250010 0
9.204981 6.989269 6.083260 1
7.960846 7.284486 3.513859 1
9.129201 9.067627 8.488301 2
2.700768 7.314134 3.177062 0
6.980556 1.511413 2.694455 0
8.713763 1.923785 1.163089 0
8.941589 8.602405 2.280212 0
7.498551 8.670110 9.707852 2
2.458160 4.592141 7.227470 2
9.729715 8.724224 3.483473 1
1.715976 9.325132 7.545330 2
1.381534 4.874717 6.266361 1
9.131908 2.768445 2.213017 0
2.067258 4.040908 2.302795 0
9.485784 9.825546 6.563399 1
2.129764 7.882858 3.858258 1
1.180962 4.364952 4.156272 1
1.311717 1.734286 2.388773 0
4.668280 2.228688 2.446439 0
1.219210 7.136343 3.640385 1
8.475821 4.987438 7.884650 2
9.458866 2.690101 5.461444 1
1.296074 0.498952 6.509853 1
5.368934 1.294595 6.418755 1
7.266302 5.240847 8.909062 2
0.757557 1.953190 5.748924 1
4.376426 2.939199 1.891745 0
8.959124 7.092482 7.226480 2
2.441499 0.400565 1.101422 0
0.370988 8.413183 7.821016 2
8.178608 8.491539 3.287611 0
6.594382 7.778767 2.614420 0
6.413442 2.021851 5.983258 1
2.292573 5.405225 9.606526 2
9.538530 6.873352 8.330204 2
0.113100 9.207910 1.008753 0
3.619589 9.528373 1.785682 0
9.403183 3.205838 5.948912 1
8.714553 8.031933 9.915137 2
9.098802 3.328599 5.647204 1
9.208477 5.317838 2.757644 0
7.877056 5.168718 6.585543 1
7.769761 0.353254 4.501037 1
1.268156 6.418790 7.308624 2
8.437065 7.618520 9.334168 2
1.607039 1.039875 6.484574 1
4.987696 6.618815 7.381361 2
0.582348 5.285161 0.144484 0
2.565233 9.148553 6.695064 2
5.891505 7.590506 2.795149 0
5.405265 5.732906 6.838816 2
5.466520 5.401269 4.602587 1
4.367470 7.312357 6.408722 1
1.380305 4.730980 9.734834 2
5.620891 1.426700 1.739265 0
4.878234 0.052266 2.885374 0
9.100527 0.957839 1.025896 0
6.264493 5.146440 1.240899 0
3.536944 7.919329 9.436111 2
0.017525 3.997577 5.255673 1
3.916566 2.611153 7.829560 2
1.504056 3.375098 1.395050 0
2.810617 4.457087 1.661512 0
3.480315 6.635761 4.425328 1
1.615783 5.950535 3.676788 1
6.543961 4.666075 9.260854 2
1.227711 3.207181 7.120268 2
3.980765 9.507500 0.874727 0
8.435312 2.163024 6.489443 1
9.672736 8.554881 5.055124 1
3.832783 9.773562 6.752111 2
0.541529 5.423841 5.810454 1
1.117990 3.922436 7.282763 2
9.231437 6.571477 8.727578 2
4.071973 7.608391 7.276963 2
1.904645 5.794065 4.770318 1
6.116928 0.019454 5.530173 1
0.959721 3.104982 4.576156 1
0.265174 1.982395 1.541569 0
2.500963 7.020952 5.247729 1
9.807289 5.034245 0.801056 0
0.550179 6.066084 4.480335 1
7.505876 2.662313 1.216557 0
3.857308 3.959168 2.693115 0
8.352664 4.626921 8.891127 2
9.717496 3.623655 1.255714 0
9.678738 5.242908 9.274896 2
5.154309 4.137098 9.055520 2
6.600463 5.704166 5.960203 1
0.718581 1.397607 1.877692 0
2.213632 3.936907 3.737426 1
8.881906 1.955091 9.988538 2
1.851071 5.076842 8.281210 2
7.303194 4.174726 0.561835 0
1.137153 0.044811 5.491970 1
5.792839 8.325507 3.939394 1
0.968912 2.438698 4.494314 1
2.285930 4.187464 9.362806 2
7.891757 2.680893 9.937770 2
9.344494 0.820939 4.053748 1
9.209847 7.105008 2.110331 0
5.510709 3.480388 9.408849 2
2.907756 0.199780 7.593455 2
0.268845 7.524443 3.628126 1
5.483990 7.511469 2.520557 0
6.507914 1.258926 7.108139 2
4.476026 1.789229 3.261380 0
3.295981 9.950341 5.965048 1
7.495039 6.832254 9.320929 2
2.193151 5.544371 2.875821 0
2.279775 0.295541 1.684532 0
8.766079 7.563765 1.715506 0
6.416528 0.786453 4.862852 1
8.158077 8.217166 2.058292 0
6.260114 4.828256 6.533125 1
7.789692 6.159170 4.911077 1
5.916834 9.503107 2.411639 0
0.608101 1.752552 2.300117 0
8.094266 2.007480 1.553754 0
1.263183 8.357924 7.934772 2
4.712624 2.912485 8.203088 2
8.377422 2.718401 1.801728 0
0.190209 8.809628 7.683913 2
6.944704 1.020929 2.657749 0
5.242495 7.623197 3.054043 0
1.116128 3.709545 0.745033 0
1.993798 3.226897 9.330902 2
2.214685 3.397634 8.445622 2
6.945731 7.039150 6.040466 1
9.252165 0.420358 0.370358 0
5.787157 5.976751 9.585496 2
3.009446 1.055677 7.532633 2
8.807099 0.707916 4.215617 1
1.862498 8.363103 2.152977 0
7.614478 4.987646 4.442854 1
0.503838 7.983235 0.157057 0
5.141753 4.283482 2.100686 0
4.788365 1.337816 6.510737 1
4.199528 2.159870 6.389764 1
5.375789 3.185038 1.861118 0
8.552967 4.705977 9.277450 2
5.273196 4.096616 2.557026 0
9.848976 3.660577 0.443363 0
3.991335 3.438889 3.856914 1
4.109283 2.352115 9.024583 2
1.491568 3.607128 1.502406 0
3.327704 9.003638 8.314075 2
7.090187 7.302628 1.197249 0
8.530972 4.758086 3.226252 0
7.102126 3.799917 0.041809 0
5.867067 7.303114 5.228995 1
3.252969 9.820725 1.679246 0
9.325055 3.861128 8.636333 2
2.408925 1.772996 4.931128 1
2.453105 1.630508 1.868276 0
5.547083 2.854118 0.243898 0
1.779398 9.964745 2.531906 0
9.872379 3.284547 6.560457 1
5.427630 2.903515 2.875541 0
8.991226 1.126783 2.022005 0
7.279472 2.495014 4.986680 1
4.185328 0.025118 7.861911 2
3.644319 6.335721 9.961098 2
4.776770 3.764895 8.636965 2
3.564974 1.677052 0.860985 0
5.819312 4.179012 8.064555 2
4.493383 2.486461 7.706496 2
6.148489 0.973200 0.482316 0
9.338407 3.157628 0.699711 0
7.821109 4.836935 9.634597 2
0.653948 2.549859 3.238372 0
0.390025 7.140963 0.804955 0
3.342359 7.200599 0.567807 0
3.691473 9.308469 3.938823 1
2.527239 0.162416 8.051245 2
6.576560 9.316107 9.133064 2
6.272105 5.928807 9.473401 2
3.542424 0.652846 7.023972 2
8.623479 7.195243 5.887052 1
5.528906 6.293457 0.597469 0
6.242465 7.990012 2.921920 0
8.610088 6.045198 2.282685 0
8.274803 6.975393 5.033934 1
0.385284 7.221043 5.435584 1
7.294900 6.386750 8.653062 2
1.572381 1.990806 0.876179 0
3.159292 3.811124 4.323033 1
0.137402 2.844707 9.617767 2
5.796845 3.719601 2.275027 0
8.776879 6.291043 1.201234 0
3.132767 1.190870 1.037240 0
0.010523 7.845512 3.751720 1
4.970544 8.776283 0.702760 0
6.773638 2.169030 2.506357 0
3.861644 2.328051 0.712345 0
4.848106 3.859742 3.695241 1
0.571372 5.704603 3.724606 1
5.959190 5.708565 9.949549 2
4.352602 5.149125 5.570485 1
2.103362 2.582367 3.145767 0
2.962860 4.777561 1.659699 0
6.468575 8.849428 8.968553 2
1.042404 1.324339 1.363211 0
8.804083 5.968569 0.911644 0
0.000835 9.855002 8.621932 2
4.548265 9.797621 2.624920 0
4.065239 8.591940 4.314060 1
9.987034 8.127803 3.547516 1
2.866098 8.628891 2.207117 0
5.487839 5.981984 5.401602 1
6.218385 2.753230 2.891902 0
6.784610 0.630537 4.819592 1
0.681060 3.994486 9.386829 2
2.352324 1.059568 6.170200 1
9.696913 4.586321 3.396156 1
1.200447 7.844801 2.442117 0
6.169116 1.018888 4.228321 1
9.915028 4.598154 6.576815 1
8.711743 7.768897 7.522191 2
8.022204 3.296800 1.967767 0
8.041986 6.351820 9.161711 2
5.037778 4.606102 2.864713 0
6.116791 0.409562 8.954628 2
7.597976 4.241449 9.418780 2
3.800676 8.005535 1.855243 0
0.061075 1.815941 6.067990 1
6.292087 0.928024 6.408089 1
7.341917 6.591454 2.202084 0
2.372499 7.793920 2.609604 0
0.504483 2.062291 9.675139 2
4.251068 5.267930 5.256902 1
1.879297 6.345096 1.649396 0
3.946891 5.321989 5.151692 1
3.233003 8.546181 7.050521 2
9.920855 6.597735 2.472449 0
5.324563 2.969122 3.471775 1
1.860057 9.461636 9.355930 2
5.965160 6.636917 3.493408 1
4.554463 5.833040 3.074939 0
8.040214 6.037828 3.277918 0
4.763890 0.673980 9.997955 2
7.910095 8.953400 8.177725 2
2.012140 4.281633 9.971946 2
3.359682 3.332253 0.113116 0
2.017878 7.276448 8.156779 2
3.247856 6.205201 8.886170 2
0.685253 2.428668 9.829994 2
9.242749 9.874118 5.574094 1
4.188881 1.832459 5.673342 1
1.011450 5.019809 2.811720 0
8.596849 3.497388 1.976738 0
1.759435 6.550224 5.706070 1
4.144593 2.112520 2.671742 0
3.595023 9.758540 4.053070 1
3.367862 4.281734 8.197958 2
3.047924 9.196301 2.389125 0
5.123096 3.572913 2.334484 0
7.791340 6.125143 7.572496 2
1.671301 0.221134 5.522170 1
1.062679 4.946124 4.721760 1
2.857247 0.418972 4.754394 1
4.386871 2.763552 1.916373 0
4.329620 0.995630 3.279726 0
5.471587 0.385808 7.551480 2
2.770060 8.022333 2.410533 0
5.885783 3.401318 0.343751 0
1.358396 6.752297 3.689203 1
4.360589 1.330408 2.019328 0
2.312672 1.647669 0.477979 0
3.454703 0.517779 8.698347 2
5.314337 0.148509 0.631738 0
9.282723 4.072543 9.396199 2
8.189719 1.234681 2.514974 0
6.277777 3.516924 6.258582 1
2.083641 2.665456 5.806568 1
6.515305 7.631845 5.060640 1
1.374287 7.858454 2.687149 0
1.667580 6.626056 6.770215 2
9.022298 8.397625 3.237332 0
2.487145 4.682018 3.145805 0
3.538132 6.498984 1.341610 0
5.759520 6.640862 7.772917 2
8.484562 7.319511 5.010570 1
3.157390 4.307039 9.375118 2
4.077713 8.008743 6.373513 1
9.997429 8.170189 0.388304 0
8.733453 2.830416 3.265593 0
7.565971 2.523809 7.044198 2
2.816325 8.937938 4.266065 1
0.625458 7.099157 6.920254 2
3.530009 9.879117 6.782588 2
3.773670 6.215878 0.343756 0
1.627669 5.823021 9.306654 2
4.092272 8.531040 5.593374 1
5.163097 5.211869 4.311177 1
9.990716 4.877035 6.555330 1
9.535971 8.576396 3.930130 1
3.241352 4.962741 2.272260 0
7.534144 4.743123 9.835552 2
8.585144 6.726270 5.195066 1
4.808551 1.112886 7.200728 2
2.485573 7.789911 2.365637 0
3.074585 9.455498 2.362997 0
8.666159 0.286989 9.699933 2
7.806610 5.475740 7.299364 2
9.722250 6.109500 9.770416 2
4.598639 8.951071 8.420267 2
5.428270 6.498173 7.009486 2
0.168611 7.970651 9.586161 2
8.177994 1.515091 5.995677 1
9.413396 4.297594 5.391002 1
7.065253 1.612877 3.247673 0
7.073711 0.740597 3.682053 1
5.895688 0.817151 5.640578 1
9.173100 7.555641 6.245116 1
8.304474 6.590950 9.698956 2
2.048397 8.682665 3.962541 1
6.661934 7.207476 3.053576 0
2.051120 0.477711 3.178574 0
2.126218 0.096956 2.152560 0
3.388373 8.156477 9.329297 2
2.454618 5.960339 6.676773 2
5.670873 5.875551 6.644776 2
2.602433 9.485238 8.069963 2
9.994193 2.672709 6.561253 1
1.516699 3.346175 3.175090 0
6.077887 9.551802 0.315628 0
4.019086 2.226713 9.855130 2
4.418122 5.137564 7.650745 2
3.291611 4.550407 6.640790 2
6.317187 3.983860 6.944323 2
7.442730 5.567107 5.501021 1
2.939373 9.796830 5.295854 1
1.142979 9.830382 9.440391 2
6.044222 4.372058 0.479754 0
2.268275 6.652411 2.498761 0
6.750192 0.409813 2.353809 0
7.970030 9.521719 9.528429 2
7.636852 0.468746 7.617824 2
7.393503 8.077127 2.208839 0
7.405721 3.354110 1.923827 0
2.054743 3.398694 7.468356 2
8.807502 4.245139 8.318179 2
6.500012 2.181900 6.198973 1
6.915683 8.154077 7.448511 2
1.559964 9.255718 9.204072 2
0.750907 4.495943 5.596607 1
0.972608 8.182436 8.340012 2
4.907850 5.548311 3.885637 1
4.638893 9.431543 1.693590 0
8.042006 8.306176 3.285774 0
5.260327 5.361335 2.693053 0
1.515872 0.058365 2.839262 0
7.355875 6.321533 1.298213 0
6.200701 0.625905 1.799622 0
5.788468 9.262228 5.402952 1
4.798430 8.511827 5.551343 1
1.024961 2.984053 7.160453 2
0.619569 6.271208 3.166530 0
9.134287 6.283468 8.825028 2
1.796032 2.449571 6.816019 2
6.847130 6.365815 5.764982 1
6.258124 4.735607 0.504208 0
9.351330 2.646253 0.258297 0
3.078268 6.628558 7.128190 2
5.595817 0.311099 3.499485 1
9.279220 3.057364 2.982463 0
3.792353 2.211268 6.747442 2
3.393720 8.474989 5.265025 1
0.170251 4.474742 2.903428 0
8.378557 7.776500 4.042979 1
9.253577 7.290499 0.973987 0
8.272170 6.217646 0.344027 0
0.263700 1.611491 9.043302 2
2.992256 8.619312 4.870237 1
5.971139 0.735460 6.647792 2
8.331398 9.595881 7.748986 2
7.833015 9.420781 8.450214 2
7.195891 5.285297 0.500699 0
1.687172 6.885819 3.091403 0
8.440385 8.864378 3.903925 1
9.133874 7.272792 7.286668 2
4.936341 8.180922 8.516102 2
9.162851 1.189758 5.694707 1
0.790797 6.917479 3.328713 1
6.687989 6.061151 9.884727 2
0.950089 0.159923 9.608128 2
3.810554 0.138786 3.071985 0
9.844386 0.803282 6.663772 2
7.211463 1.588343 6.701843 2
9.069797 5.168143 2.266409 0
3.718095 1.888897 7.214585 2
7.067528 9.662694 4.115218 1
4.095410 6.957035 6.402812 1
0.837904 7.284568 7.830099 2
5.925383 3.035917 8.836093 2
7.647314 5.290698 7.650357 2
7.060253 8.230698 5.457115 1
8.307192 6.835675 6.074834 1
5.861921 8.614584 3.842081 1
7.787201 7.252451 6.659358 2
4.436156 7.386404 1.797907 0
3.696529 2.270117 2.193812 0
2.037305 6.454321 8.703467 2
7.053138 4.633313 6.775260 2
8.954824 3.384429 2.963178 0
1.816533 6.785990 9.900033 2
2.073601 6.503966 4.374874 1
1.610588 9.420492 1.233628 0
6.441510 1.365491 2.913773 0
5.990118 3.755780 2.931339 0
7.138229 8.108889 5.612197 1
0.771281 1.434064 1.102359 0
7.771300 8.010999 8.846501 2
7.878890 5.241893 5.255933 1
6.966369 5.617653 7.845985 2
9.831167 5.427277 5.431268 1
1.654862 7.804829 4.326713 1
5.557582 5.075767 3.531112 1
7.503732 3.111039 7.579625 2
4.034711 7.526581 3.406015 1
2.555630 3.567186 1.378605 0
4.783780 8.063879 2.482357 0
8.235401 8.546548 9.151803 2
3.643691 7.353193 0.348876 0
0.918875 5.498737 1.562752 0
6.422505 7.698709 7.619150 2
9.957540 0.384032 6.988471 2
2.991101 9.014822 2.814399 0
1.528835 8.276110 7.506443 2
7.608001 4.602663 2.794937 0
1.458773 0.110599 8.153283 2
2.980418 2.684798 5.370027 1
1.291494 9.114670 1.923538 0
7.540339 6.460856 3.595308 1
5.605270 7.447140 6.918453 2
5.521465 5.748128 5.925495 1
4.979886 6.854572 3.819386 1
0.635602 2.758756 9.090893 2
5.956880 3.950203 7.535517 2
1.441507 0.529431 4.495272 1
3.427098 4.642320 7.804538 2
0.778206 6.273258 3.885997 1
0.675280 2.134111 5.727268 1
0.647688 4.613261 3.585093 1
7.513272 8.771595 6.156832 1
8.201655 7.623293 6.010853 1
6.542655 6.187499 9.436734 2
3.068413 1.113043 1.599695 0
2.050865 6.806047 1.458358 0
7.245143 8.623035 2.647978 0
7.316751 6.899337 3.101785 0
9.628026 8.096814 2.610903 0
2.439142 6.230974 7.165392 2
5.381395 2.853183 8.682813 2
6.613229 5.047682 6.246976 1
6.822794 3.978157 3.064424 0
9.971970 9.534457 8.980274 2
4.033481 1.407806 6.617710 2
2.457095 8.440215 9.916905 2
1.265329 3.552131 0.442820 0
0.330484 1.706794 0.986280 0
0.579821 6.512875 8.150488 2
4.170094 6.648553 7.321446 2
4.317354 4.538583 4.532838 1
1.547414 9.759554 3.210257 0
1.664926 0.480455 3.993743 1
9.831892 6.842342 7.692358 2
2.340616 1.797432 8.798099 2
6.385135 4.426935 7.962161 2
7.608127 7.870371 8.111715 2
2.159755 4.215966 7.928638 2
2.621642 2.022200 7.529030 2
2.685160 9.911756 6.932756 2
2.296803 8.628881 9.866988 2
8.390446 8.640164 4.621517 1
6.674713 9.358723 9.622927 2
6.791701 9.967870 9.746691 2
4.123876 4.131242 2.282554 0
2.130321 1.919261 0.758450 0
2.490361 4.691614 5.732500 1
2.299363 3.910364 5.163294 1
7.788121 6.456106 1.306069 0
5.635936 0.619149 8.251719 2
4.721308 9.833786 5.367498 1
1.379208 2.302234 7.045020 2
0.336043 3.774262 2.899820 0
8.111174 5.416774 7.562436 2
3.577949 1.804110 0.392030 0
5.759753 0.183408 0.517106 0
8.066025 2.701978 2.629879 0
0.099883 1.879260 5.722689 1
2.765849 5.840039 8.168362 2
7.880776 1.298430 7.871666 2
6.555795 9.627384 2.911504 0
4.219902 3.298964 2.746570 0
7.262502 3.100581 5.841255 1
2.673988 7.048574 7.367793 2
7.821737 1.299343 8.626487 2
4.452102 6.003409 5.418265 1
8.888714 7.440338 2.910375 0
6.999667 2.403300 5.090103 1
8.968349 1.918336 7.391154 2
7.094637 6.757956 2.890976 0
9.005930 5.580216 3.076162 0
6.669451 7.833354 4.110621 1
9.916121 3.580424 6.724807 2
8.591407 7.620706 7.336931 2
2.590371 5.233229 8.798493 2
4.940324 9.139290 4.069989 1
1.564494 7.760595 4.416416 1
1.922662 5.970057 7.451077 2
7.731797 2.244016 1.125081 0
7.052273 0.788948 9.486346 2
4.277219 1.038690 9.901299 2
6.878341 6.719060 9.634090 2
9.018305 2.314433 0.406653 0
4.877079 3.738817 0.067395 0
2.913093 7.393706 7.689517 2
7.336067 0.553741 4.168467 1
7.384861 8.386591 5.111437 1
0.505741 6.615288 5.535227 1
9.570485 6.656318 8.444128 2
6.291420 7.410751 8.374345 2
9.314036 0.513379 0.012774 0
1.976261 3.392084 2.118934 0
4.695426 2.924769 1.510918 0
5.199417 1.175133 7.418589 2
6.346940 9.197680 3.890038 1
6.627796 7.354154 7.911399 2
9.201385 6.819795 1.507379 0
6.801171 6.652258 9.789334 2
6.636389 8.963408 5.787465 1
1.191928 3.809675 1.476825 0
6.020652 0.246764 6.432147 1
9.008556 3.206472 4.417236 1
2.596099 7.194873 9.414830 2
0.346690 9.938509 1.167633 0
2.608229 8.106249 1.426206 0
8.705265 2.112451 2.227239 0
0.984796 7.937115 1.206333 0
4.297681 7.844006 7.109446 2
4.615709 0.557584 7.704563 2
3.999610 9.214725 6.848693 2
6.743223 3.484492 6.120036 1
0.369868 1.991173 2.948817 0
8.587563 6.613234 0.037522 0
8.115423 2.810635 7.155427 2
6.418004 0.506212 4.320694 1
5.635164 1.829318 3.873284 1
0.617744 3.469272 7.566527 2
1.222696 7.918865 7.001050 2
7.830037 6.944876 4.617147 1
3.266754 8.261991 7.716873 2
2.106320 0.857244 6.024437 1
8.456713 2.677652 6.329230 1
6.678663 3.147821 8.984028 2
0.753877 3.425917 1.691936 0
1.108332 7.559079 5.869474 1
9.846770 7.718082 7.385021 2
3.203974 1.940962 2.927136 0
9.710525 6.992379 4.793388 1
7.005058 2.876252 1.589024 0
2.027795 6.601577 9.646756 2
2.635187 2.133657 2.441673 0
9.422967 2.034047 7.391979 2
4.411939 2.507383 5.849452 1
2.111004 2.261305 6.913173 2
4.986692 5.554501 5.149001 1
5.659338 0.341982 9.079911 2
6.910142 0.634093 1.815184 0
0.514196 8.040906 6.923174 2
9.171822 6.410812 8.091795 2
0.222224 2.195163 2.462684 0
3.883437 3.935826 5.292975 1
1.614866 0.907758 0.618389 0
8.330491 2.636501 3.881387 1
4.148814 5.946362 3.561352 1
3.323674 4.883783 2.808046 0
2.302402 9.676163 0.458513 0
5.645434 7.697550 0.074580 0
5.005638 3.697984 6.284944 1
3.944860 1.978869 8.775011 2
5.494460 3.412564 9.011396 2
0.279790 6.369916 6.693318 2
6.573583 5.424519 2.938072 0
8.538582 2.510639 8.631626 2
2.848550 1.776002 6.520382 1
7.147026 4.659268 2.891814 0
4.028984 5.783290 2.187325 0
4.096668 8.341596 8.902856 2
4.142859 8.428316 3.241846 0
6.206728 8.850843 1.627375 0
6.156924 5.344270 1.703699 0
9.112188 8.597673 4.266537 1
6.918944 2.051891 7.717281 2
7.959909 0.714423 6.833129 2
7.625311 3.673790 2.465997 0
0.592238 6.838438 0.996046 0
5.745442 5.592917 3.634827 1
7.050941 6.911318 6.299072 1
7.221571 4.113839 7.155500 2
1.966821 4.265513 2.193556 0
6.599682 7.397458 0.228790 0
6.152226 3.182006 0.934347 0
5.657583 2.641562 5.420035 1
2.355518 4.963042 6.900802 2
2.585677 7.650358 3.008506 0
9.896353 0.877489 7.544696 2
7.192924 9.762473 8.851677 2
4.339399 6.685289 5.964890 1
0.674390 9.897761 2.500851 0
1.787723 5.465360 0.905655 0
1.090457 3.736070 9.985507 2
1.469923 4.046429 0.992752 0
5.694438 6.663982 0.561593 0
9.714189 6.380925 6.194224 1
2.958357 6.062368 5.551010 1
0.532116 1.651544 1.616496 0
5.440571 1.501111 2.068159 0
6.085359 6.670397 8.123273 2
1.682039 1.902440 1.460768 0
1.292583 7.654166 9.130523 2
8.919836 4.315407 5.465229 1
1.752142 4.246044 4.731781 1
2.726126 9.646911 4.635221 1
5.209992 2.747362 9.007024 2
0.487712 6.694591 4.638548 1
7.009184 9.441410 2.230138 0
0.585266 7.606729 0.673262 0
3.327981 4.942401 9.159322 2
8.957368 4.003491 3.440304 1
8.971530 3.693590 5.909312 1
0.642543 5.537113 7.876143 2
2.115416 0.265337 0.470024 0
7.708180 5.340321 3.798911 1
3.664702 5.952365 1.060298 0
3.957396 5.349236 1.602524 0
2.219736 6.252456 2.733852 0
5.449706 0.219287 4.569073 1
5.343909 8.171503 2.934151 0
2.923232 6.217594 1.370362 0
6.948924 9.854380 3.840159 1
1.402971 8.554165 5.993377 1
1.213450 6.187811 5.372825 1
4.809220 9.409021 3.040803 0
5.692040 3.477630 5.301730 1
6.278534 5.058498 3.681413 1
1.986534 6.339071 7.241944 2
4.657640 6.051502 7.357944 2
4.681336 6.352288 0.777328 0
0.413069 4.329449 7.505118 2
7.657081 9.903624 1.141605 0
5.322972 8.574236 8.083364 2
4.834063 9.420551 3.240685 0
5.612704 4.333242 0.221413 0
4.177939 9.481791 6.758857 2
5.467527 5.161072 3.301429 1
0.015795 6.669288 9.674478 2
1.062869 3.410931 5.066506 1
1.753505 1.544539 3.612335 1
2.361076 3.639024 1.181254 0
5.350950 3.844634 7.803754 2
1.176174 1.688741 3.223522 0
2.364597 7.626451 8.230918 2
3.134149 7.745267 3.129094 0
7.563198 3.289153 2.845463 0
7.338707 6.106864 7.284125 2
2.523767 7.528355 3.523227 1
4.182077 5.152133 2.242841 0
8.540124 7.701002 2.032373 0
4.436512 1.120147 7.578785 2
5.517946 4.011142 6.491162 1
6.418035 2.053771 0.215125 0
2.401381 0.600996 5.259986 1
4.674321 8.678686 3.678994 1
3.492679 1.977371 9.584386 2
6.252675 1.407525 1.313434 0
5.417993 9.956772 5.194767 1
3.890988 5.300460 9.886779 2
1.175145 2.091180 1.680474 0
9.375874 2.236157 0.532085 0
2.833064 1.503057 1.981395 0
0.318238 6.718539 7.202757 2
2.720365 7.644742 7.846506 2
2.657872 6.693979 9.618279 2
6.156330 7.557052 8.569527 2
3.331034 1.633906 3.766049 1
